<?xml version="1.0" encoding="UTF-8" standalone="no"?>
<!-- Created with Inkscape (http://www.inkscape.org/) -->

<svg
   xmlns:dc="http://purl.org/dc/elements/1.1/"
   xmlns:cc="http://creativecommons.org/ns#"
   xmlns:rdf="http://www.w3.org/1999/02/22-rdf-syntax-ns#"
   xmlns:svg="http://www.w3.org/2000/svg"
   xmlns="http://www.w3.org/2000/svg"
   xmlns:xlink="http://www.w3.org/1999/xlink"
   xmlns:sodipodi="http://sodipodi.sourceforge.net/DTD/sodipodi-0.dtd"
   xmlns:inkscape="http://www.inkscape.org/namespaces/inkscape"
   width="26.214905mm"
   height="25.796839mm"
   viewBox="0 0 92.887458 91.40612"
   id="svg2"
   version="1.1"
   inkscape:version="0.91 r13725"
   sodipodi:docname="logo.svg">
  <defs
     id="defs4">
    <linearGradient
       inkscape:collect="always"
       id="linearGradient4197">
      <stop
         style="stop-color:#e5295e;stop-opacity:1"
         offset="0"
         id="stop4199" />
      <stop
         style="stop-color:#8d5fd3;stop-opacity:1"
         offset="1"
         id="stop4201" />
    </linearGradient>
    <linearGradient
       inkscape:collect="always"
       xlink:href="#linearGradient4197"
       id="linearGradient4158"
       x1="253.08743"
       y1="322.92084"
       x2="281.78418"
       y2="322.92084"
       gradientUnits="userSpaceOnUse" />
    <linearGradient
       inkscape:collect="always"
       xlink:href="#linearGradient4197"
       id="linearGradient4164"
       gradientUnits="userSpaceOnUse"
       x1="253.08743"
       y1="322.92084"
       x2="281.78418"
       y2="322.92084" />
  </defs>
  <sodipodi:namedview
     id="base"
     pagecolor="#ffffff"
     bordercolor="#666666"
     borderopacity="1.0"
     inkscape:pageopacity="0.0"
     inkscape:pageshadow="2"
     inkscape:zoom="2.8284271"
     inkscape:cx="-57.597646"
     inkscape:cy="2.7078001"
     inkscape:document-units="px"
     inkscape:current-layer="layer1"
     showgrid="false"
     fit-margin-top="0"
     fit-margin-left="0"
     fit-margin-right="0"
     fit-margin-bottom="0"
     inkscape:window-width="1680"
     inkscape:window-height="923"
     inkscape:window-x="0"
     inkscape:window-y="1"
     inkscape:window-maximized="1" />
  <metadata
     id="metadata7">
    <rdf:RDF>
      <cc:Work
         rdf:about="">
        <dc:format>image/svg+xml</dc:format>
        <dc:type
           rdf:resource="http://purl.org/dc/dcmitype/StillImage" />
        <dc:title></dc:title>
      </cc:Work>
    </rdf:RDF>
  </metadata>
  <g
     inkscape:label="Layer 1"
     inkscape:groupmode="layer"
     id="layer1"
     transform="translate(-202.95964,-258.59406)">
    <g
       transform="matrix(2.4624423,0,0,2.4624423,-408.1967,-500.19314)"
       style="font-style:normal;font-variant:normal;font-weight:normal;font-stretch:normal;font-size:40px;line-height:125%;font-family:Monoton;-inkscape-font-specification:Monoton;letter-spacing:0px;word-spacing:0px;fill:url(#linearGradient4158);fill-opacity:1;stroke:none;stroke-width:1px;stroke-linecap:butt;stroke-linejoin:miter;stroke-opacity:1"
       id="flowRoot4136">
      <path
         d="m 274.0746,323.47406 -1.28493,-2.1237 0,-13.20621 1.28493,0 0,15.32991 z m 2.56986,4.21171 -1.28493,-2.15939 0,-17.38223 1.28493,0 0,19.54162 z m 2.56986,4.26525 -1.28493,-2.17724 0,-21.62963 1.28493,0 0,23.80687 z m -18.41731,-9.58342 1.28492,2.1237 0,13.20621 -1.28492,0 0,-15.32991 z m -2.56986,-4.21171 1.28493,2.15939 0,17.38223 -1.28493,0 0,-19.54162 z m -2.56986,-4.26525 1.28493,2.17724 0,21.62963 -1.28493,0 0,-23.80687 z m 0.44616,-5.74649 1.49908,0 18.16746,29.55336 -1.49908,0 -18.16746,-29.55336 z m 3.03386,0 1.51693,0 18.14961,29.55336 -1.53477,0 -18.13177,-29.55336 z m 3.01601,0 1.49908,0 16.84684,27.46535 0,-27.46535 1.28493,0 0,29.55336 q 0,0 -1.51693,0 l -18.11392,-29.55336 z m -7.78096,2.08801 0,27.46535 -1.28493,0 0,-29.55336 q 0,0 1.53478,0 l 18.11392,29.55336 -1.48123,0 -16.88254,-27.46535 z"
         style="font-size:36.5490799px;fill:url(#linearGradient4164);fill-opacity:1"
         id="path4167" />
    </g>
    <g
       style="font-style:normal;font-weight:normal;font-size:18.14760971px;line-height:125%;font-family:sans-serif;letter-spacing:0px;word-spacing:0px;fill:#8d5fd3;fill-opacity:1;stroke:none;stroke-width:1px;stroke-linecap:butt;stroke-linejoin:miter;stroke-opacity:1"
       id="text4148">
      <path
         d="m 261.94053,350.00018 6.02,0 c 0.34,0 0.6,-0.26 0.6,-0.6 0,-0.34 -0.26,-0.6 -0.6,-0.6 l -6.02,0 c -0.34,0 -0.6,0.26 -0.6,0.6 0,0.34 0.26,0.6 0.6,0.6 z m -2.6,-13.4 0,12.8 c 0,0.34 0.26,0.6 0.6,0.6 0.34,0 0.6,-0.26 0.6,-0.6 l 0,-12.8 c 0,-0.34 -0.26,-0.6 -0.6,-0.6 -0.34,0 -0.6,0.26 -0.6,0.6 z"
         style="font-style:normal;font-variant:normal;font-weight:500;font-stretch:normal;font-size:20px;font-family:Beon;-inkscape-font-specification:'Beon Medium';fill:#8d5fd3;fill-opacity:1"
         id="path4181" />
      <path
         d="m 270.51241,336.60018 0,12.8 c 0,0.34 0.26,0.6 0.6,0.6 0.34,0 0.6,-0.26 0.6,-0.6 l 0,-12.8 c 0,-0.34 -0.26,-0.6 -0.6,-0.6 -0.34,0 -0.6,0.26 -0.6,0.6 z"
         style="font-style:normal;font-variant:normal;font-weight:500;font-stretch:normal;font-size:20px;font-family:Beon;-inkscape-font-specification:'Beon Medium';fill:#8d5fd3;fill-opacity:1"
         id="path4183" />
      <path
         d="m 277.44178,343.12018 4.84,0 c 0.34,0 0.6,-0.26 0.6,-0.6 0,-0.34 -0.26,-0.6 -0.6,-0.6 l -4.84,0 c -0.34,0 -0.6,0.26 -0.6,0.6 0,0.34 0.26,0.6 0.6,0.6 z m -2.32,-6.52 0,12.8 c 0,0.34 0.26,0.6 0.6,0.6 0.34,0 0.6,-0.26 0.6,-0.6 l 0,-12.8 c 0,-0.34 -0.26,-0.6 -0.6,-0.6 -0.34,0 -0.6,0.26 -0.6,0.6 z m 8.34,-0.6 -6.02,0 c -0.34,0 -0.6,0.26 -0.6,0.6 0,0.34 0.26,0.6 0.6,0.6 l 6.02,0 c 0.34,0 0.6,-0.26 0.6,-0.6 0,-0.34 -0.26,-0.6 -0.6,-0.6 z"
         style="font-style:normal;font-variant:normal;font-weight:500;font-stretch:normal;font-size:20px;font-family:Beon;-inkscape-font-specification:'Beon Medium';fill:#8d5fd3;fill-opacity:1"
         id="path4185" />
      <path
         d="m 288.8871,343.12018 5.16,0 c 0.34,0 0.6,-0.26 0.6,-0.6 0,-0.34 -0.26,-0.6 -0.6,-0.6 l -5.16,0 c -0.34,0 -0.6,0.26 -0.6,0.6 0,0.34 0.26,0.6 0.6,0.6 z m -0.04,6.88 6.4,0 c 0.34,0 0.6,-0.26 0.6,-0.6 0,-0.34 -0.26,-0.6 -0.6,-0.6 l -6.4,0 c -0.34,0 -0.6,0.26 -0.6,0.6 0,0.34 0.26,0.6 0.6,0.6 z m -2.28,-13.4 0,12.8 c 0,0.34 0.26,0.6 0.6,0.6 0.34,0 0.6,-0.26 0.6,-0.6 l 0,-12.8 c 0,-0.34 -0.26,-0.6 -0.6,-0.6 -0.34,0 -0.6,0.26 -0.6,0.6 z m 8.66,-0.6 -6.34,0 c -0.34,0 -0.6,0.26 -0.6,0.6 0,0.34 0.26,0.6 0.6,0.6 l 6.34,0 c 0.34,0 0.6,-0.26 0.6,-0.6 0,-0.34 -0.26,-0.6 -0.6,-0.6 z"
         style="font-style:normal;font-variant:normal;font-weight:500;font-stretch:normal;font-size:20px;font-family:Beon;-inkscape-font-specification:'Beon Medium';fill:#8d5fd3;fill-opacity:1"
         id="path4187" />
    </g>
    <g
       style="font-style:normal;font-weight:normal;font-size:17.5px;line-height:125%;font-family:sans-serif;letter-spacing:0px;word-spacing:0px;fill:#e52b5e;fill-opacity:1;stroke:none;stroke-width:1px;stroke-linecap:butt;stroke-linejoin:miter;stroke-opacity:1"
       id="text4177">
      <path
         d="m 212.81964,345.38406 0,-8.8 c 0,-0.34 -0.26,-0.6 -0.6,-0.6 -0.34,0 -0.6,0.26 -0.6,0.6 l 0,8.8 c 0,0.34 0.26,0.6 0.6,0.6 0.34,0 0.6,-0.26 0.6,-0.6 z m -9.76,-8.46 8.66,12.8 c 0.18,0.28 0.56,0.36 0.84,0.18 0.28,-0.18 0.36,-0.56 0.18,-0.84 l -8.66,-12.8 c -0.18,-0.28 -0.56,-0.36 -0.84,-0.18 -0.28,0.18 -0.36,0.56 -0.18,0.84 z m 1.1,12.46 0,-8.8 c 0,-0.34 -0.26,-0.6 -0.6,-0.6 -0.34,0 -0.6,0.26 -0.6,0.6 l 0,8.8 c 0,0.34 0.26,0.6 0.6,0.6 0.34,0 0.6,-0.26 0.6,-0.6 z"
         style="font-style:normal;font-variant:normal;font-weight:500;font-stretch:normal;font-size:20px;font-family:Beon;-inkscape-font-specification:'Beon Medium';fill:#e52b5e;fill-opacity:1"
         id="path4170" />
      <path
         d="m 216.22089,336.58406 0,12.8 c 0,0.34 0.26,0.6 0.6,0.6 0.34,0 0.6,-0.26 0.6,-0.6 l 0,-12.8 c 0,-0.34 -0.26,-0.6 -0.6,-0.6 -0.34,0 -0.6,0.26 -0.6,0.6 z"
         style="font-style:normal;font-variant:normal;font-weight:500;font-stretch:normal;font-size:20px;font-family:Beon;-inkscape-font-specification:'Beon Medium';fill:#e52b5e;fill-opacity:1"
         id="path4172" />
      <path
         d="m 228.03026,337.54406 c 0.28,0.12 0.56,0.26 0.82,0.42 0.28,0.18 0.66,0.1 0.84,-0.18 0.18,-0.28 0.1,-0.66 -0.18,-0.84 -0.32,-0.2 -0.66,-0.38 -1.02,-0.52 -0.36,-0.14 -0.72,-0.24 -1.1,-0.32 -0.38,-0.08 -0.76,-0.12 -1.14,-0.12 -0.38,0 -0.76,0.04 -1.14,0.12 -0.38,0.08 -0.74,0.18 -1.1,0.32 -0.36,0.14 -0.7,0.32 -1.02,0.52 -0.38,0.26 -0.74,0.56 -1.06,0.9 -0.32,0.34 -0.6,0.7 -0.84,1.08 -0.24,0.38 -0.44,0.78 -0.62,1.2 -0.12,0.32 -0.22,0.64 -0.3,0.96 -0.08,0.32 -0.14,0.64 -0.18,0.98 -0.04,0.34 -0.06,0.68 -0.06,1.02 0,0.04 0,0.08 0,0.12 0,0.04 0,0.08 0,0.12 0.02,0.36 0.06,0.72 0.12,1.08 0.06,0.36 0.16,0.72 0.28,1.06 0.12,0.34 0.26,0.68 0.42,1 0.18,0.34 0.38,0.66 0.62,0.96 0.24,0.3 0.5,0.58 0.78,0.84 0.28,0.26 0.58,0.5 0.9,0.7 0.32,0.2 0.66,0.38 1.02,0.52 0.36,0.14 0.72,0.26 1.1,0.34 0.38,0.08 0.76,0.12 1.14,0.12 0.5,0 1,-0.06 1.48,-0.2 0.48,-0.14 0.96,-0.34 1.4,-0.6 1,-0.6 1.86,-1.62 2.14,-2.9 0.08,-0.42 0.08,-0.96 0.08,-1.06 l 0,-2.02 c 0,-0.34 -0.26,-0.6 -0.6,-0.6 -0.34,0 -0.6,0.26 -0.6,0.6 l 0,2.04 c 0,0.32 -0.04,0.64 -0.08,0.8 -0.18,0.86 -0.78,1.64 -1.56,2.1 -0.34,0.2 -0.7,0.36 -1.08,0.46 -0.38,0.1 -0.78,0.16 -1.18,0.16 -0.3,0 -0.6,-0.04 -0.9,-0.1 -0.3,-0.06 -0.6,-0.14 -0.88,-0.26 -0.28,-0.12 -0.56,-0.26 -0.82,-0.42 -0.26,-0.16 -0.5,-0.36 -0.72,-0.58 -0.24,-0.22 -0.46,-0.46 -0.66,-0.72 -0.2,-0.26 -0.36,-0.52 -0.5,-0.8 -0.14,-0.26 -0.26,-0.54 -0.36,-0.82 -0.1,-0.28 -0.18,-0.58 -0.24,-0.88 -0.06,-0.3 -0.1,-0.6 -0.12,-0.9 0,-0.04 0,-0.12 0,-0.12 0,-0.04 0,-0.12 0,-0.12 0,-0.28 0.02,-0.56 0.06,-0.84 0.04,-0.28 0.1,-0.56 0.18,-0.84 0.08,-0.28 0.16,-0.54 0.26,-0.8 0.14,-0.36 0.32,-0.7 0.52,-1.02 0.2,-0.32 0.44,-0.62 0.7,-0.9 0.26,-0.26 0.54,-0.5 0.86,-0.7 0.26,-0.16 0.54,-0.3 0.82,-0.42 0.28,-0.12 0.58,-0.2 0.88,-0.26 0.3,-0.06 0.6,-0.1 0.9,-0.1 0.3,0 0.6,0.04 0.9,0.1 0.3,0.06 0.6,0.14 0.88,0.26 l -0.04,0.06 z m -2.9,6.22 3.78,0.02 c 0.34,0 0.62,-0.26 0.62,-0.6 0,-0.34 -0.26,-0.62 -0.6,-0.62 l -3.78,-0.02 c -0.34,0 -0.62,0.26 -0.62,0.6 0,0.34 0.26,0.62 0.6,0.62 z"
         style="font-style:normal;font-variant:normal;font-weight:500;font-stretch:normal;font-size:20px;font-family:Beon;-inkscape-font-specification:'Beon Medium';fill:#e52b5e;fill-opacity:1"
         id="path4174" />
      <path
         d="m 242.96776,336.58406 0,12.8 c 0,0.34 0.26,0.6 0.6,0.6 0.34,0 0.6,-0.26 0.6,-0.6 l 0,-12.8 c 0,-0.34 -0.26,-0.6 -0.6,-0.6 -0.34,0 -0.6,0.26 -0.6,0.6 z m -6.4,6.52 5.32,0 c 0.34,0 0.6,-0.26 0.6,-0.6 0,-0.34 -0.26,-0.6 -0.6,-0.6 l -5.32,0 c -0.34,0 -0.6,0.26 -0.6,0.6 0,0.34 0.26,0.6 0.6,0.6 z m -2.32,-6.52 0,12.8 c 0,0.34 0.26,0.6 0.6,0.6 0.34,0 0.6,-0.26 0.6,-0.6 l 0,-12.8 c 0,-0.34 -0.26,-0.6 -0.6,-0.6 -0.34,0 -0.6,0.26 -0.6,0.6 z"
         style="font-style:normal;font-variant:normal;font-weight:500;font-stretch:normal;font-size:20px;font-family:Beon;-inkscape-font-specification:'Beon Medium';fill:#e52b5e;fill-opacity:1"
         id="path4176" />
      <path
         d="m 250.98808,338.38406 0,11 c 0,0.34 0.26,0.6 0.6,0.6 0.34,0 0.6,-0.26 0.6,-0.6 l 0,-11 c 0,-0.34 -0.26,-0.6 -0.6,-0.6 -0.34,0 -0.6,0.26 -0.6,0.6 z m 5.3,-2.4 -9.38,0 c -0.34,0 -0.6,0.26 -0.6,0.6 0,0.34 0.26,0.6 0.6,0.6 l 9.38,0 c 0.34,0 0.6,-0.26 0.6,-0.6 0,-0.34 -0.26,-0.6 -0.6,-0.6 z"
         style="font-style:normal;font-variant:normal;font-weight:500;font-stretch:normal;font-size:20px;font-family:Beon;-inkscape-font-specification:'Beon Medium';fill:#e52b5e;fill-opacity:1"
         id="path4178" />
    </g>
  </g>
</svg>
